<?xml version="1.0" encoding="UTF-8" standalone="no"?>
<!-- Generated by IcoMoon.io -->

<svg
   xmlns:dc="http://purl.org/dc/elements/1.1/"
   xmlns:cc="http://creativecommons.org/ns#"
   xmlns:rdf="http://www.w3.org/1999/02/22-rdf-syntax-ns#"
   xmlns:svg="http://www.w3.org/2000/svg"
   xmlns="http://www.w3.org/2000/svg"
   xmlns:sodipodi="http://sodipodi.sourceforge.net/DTD/sodipodi-0.dtd"
   xmlns:inkscape="http://www.inkscape.org/namespaces/inkscape"
   version="1.1"
   width="31.936001"
   height="32"
   viewBox="0 0 31.936001 32"
   id="svg15"
   sodipodi:docname="github.svg"
   inkscape:version="0.92.3 (2405546, 2018-03-11)">
  <metadata
     id="metadata21">
    <rdf:RDF>
      <cc:Work
         rdf:about="">
        <dc:format>image/svg+xml</dc:format>
        <dc:type
           rdf:resource="http://purl.org/dc/dcmitype/StillImage" />
      </cc:Work>
    </rdf:RDF>
  </metadata>
  <defs
     id="defs19" />
  <sodipodi:namedview
     pagecolor="#ffffff"
     bordercolor="#666666"
     borderopacity="1"
     objecttolerance="10"
     gridtolerance="10"
     guidetolerance="10"
     inkscape:pageopacity="0"
     inkscape:pageshadow="2"
     inkscape:window-width="891"
     inkscape:window-height="477"
     id="namedview17"
     showgrid="false"
     inkscape:zoom="7.375"
     inkscape:cx="16"
     inkscape:cy="15.84"
     inkscape:window-x="1009"
     inkscape:window-y="30"
     inkscape:window-maximized="0"
     inkscape:current-layer="svg15" />
  <g
     id="g11"
     transform="translate(0,0.16)" />
  <path
     d="M 0,15.968 Q 0,12.704 1.28,9.76 3.808,3.808 9.76,1.28 12.704,0 15.968,0 q 3.264,0 6.208,1.28 5.888,2.496 8.48,8.48 1.28,3.04 1.28,6.208 0,3.168 -1.28,6.208 -2.592,6.016 -8.48,8.544 Q 19.232,32 15.968,32 12.704,32 9.76,30.72 3.808,28.16 1.28,22.176 0,19.232 0,15.968 Z m 2.496,0 q 0,4.512 2.688,8.064 2.656,3.488 6.944,4.96 v -2.56 q 0,-1.92 1.28,-2.784 -0.64,-0.032 -1.504,-0.224 Q 10.272,23.136 9.12,22.4 6.208,20.64 6.208,16.032 q 0,-2.4 1.6,-4.096 -0.736,-1.888 0.16,-4.096 h 0.64 q 0.32,0 0.8,0.16 1.248,0.384 2.784,1.408 1.952,-0.512 3.84,-0.512 1.888,0 3.872,0.512 1.248,-0.832 2.336,-1.28 1.024,-0.384 1.472,-0.32 l 0.384,0.032 q 0.864,2.208 0.16,4.096 1.6,1.696 1.6,4.096 0,3.584 -1.76,5.408 -0.96,1.024 -2.528,1.6 -1.312,0.48 -2.912,0.608 1.312,0.928 1.312,2.784 v 2.56 q 4.128,-1.472 6.816,-5.024 2.624,-3.52 2.624,-8 0,-2.72 -1.056,-5.248 Q 27.328,8.288 25.472,6.432 23.68,4.64 21.184,3.584 18.624,2.496 15.968,2.496 13.344,2.496 10.72,3.584 8.32,4.608 6.432,6.432 4.64,8.288 3.552,10.72 2.496,13.248 2.496,15.968 Z"
     id="path13"
     inkscape:connector-curvature="0"
     style="fill:#000000" />
</svg>
