<?xml version="1.0" encoding="UTF-8" standalone="no"?>
<!-- Generator: Adobe Illustrator 16.0.0, SVG Export Plug-In . SVG Version: 6.00 Build 0)  -->

<svg
   xmlns:dc="http://purl.org/dc/elements/1.1/"
   xmlns:cc="http://creativecommons.org/ns#"
   xmlns:rdf="http://www.w3.org/1999/02/22-rdf-syntax-ns#"
   xmlns:svg="http://www.w3.org/2000/svg"
   xmlns="http://www.w3.org/2000/svg"
   xmlns:sodipodi="http://sodipodi.sourceforge.net/DTD/sodipodi-0.dtd"
   xmlns:inkscape="http://www.inkscape.org/namespaces/inkscape"
   version="1.1"
   id="Layer_1"
   x="0px"
   y="0px"
   width="49.200001"
   height="40"
   viewBox="0 0 49.199999 39.999999"
   enable-background="new 0 0 39.359 39.359"
   xml:space="preserve"
   sodipodi:docname="twitter.svg"
   inkscape:version="0.92.3 (2405546, 2018-03-11)"><metadata
   id="metadata9"><rdf:RDF><cc:Work
       rdf:about=""><dc:format>image/svg+xml</dc:format><dc:type
         rdf:resource="http://purl.org/dc/dcmitype/StillImage" /><dc:title></dc:title></cc:Work></rdf:RDF></metadata><defs
   id="defs7" /><sodipodi:namedview
   pagecolor="#ffffff"
   bordercolor="#666666"
   borderopacity="1"
   objecttolerance="10"
   gridtolerance="10"
   guidetolerance="10"
   inkscape:pageopacity="0"
   inkscape:pageshadow="2"
   inkscape:window-width="1830"
   inkscape:window-height="980"
   id="namedview5"
   showgrid="false"
   inkscape:zoom="5.9960871"
   inkscape:cx="-12.33142"
   inkscape:cy="19.927499"
   inkscape:window-x="45"
   inkscape:window-y="55"
   inkscape:window-maximized="0"
   inkscape:current-layer="Layer_1" />
<path
   d="m 0,35.48 c 0.801,0.078 1.601,0.119 2.4,0.119 4.693,0 8.881,-1.44 12.56,-4.318 -2.185,-0.027 -4.146,-0.695 -5.879,-2.002 -1.735,-1.306 -2.92,-2.973 -3.561,-5.001 0.533,0.109 1.161,0.161 1.88,0.161 0.934,0 1.827,-0.121 2.68,-0.36 C 7.734,23.628 5.793,22.473 4.26,20.62 2.726,18.765 1.96,16.625 1.96,14.199 v -0.121 c 1.414,0.801 2.945,1.215 4.599,1.24 C 5.174,14.411 4.073,13.219 3.26,11.738 2.447,10.259 2.04,8.653 2.04,6.92 c 0,-1.814 0.468,-3.506 1.4,-5.081 2.506,3.12 5.567,5.607 9.181,7.461 3.613,1.852 7.485,2.885 11.62,3.1 -0.187,-0.88 -0.281,-1.654 -0.281,-2.32 0,-2.774 0.987,-5.147 2.96,-7.12 C 28.894,0.987 31.279,0 34.081,0 c 2.905,0 5.358,1.067 7.359,3.201 2.319,-0.481 4.453,-1.308 6.4,-2.48 -0.747,2.426 -2.215,4.293 -4.4,5.6 1.947,-0.239 3.867,-0.773 5.76,-1.6 -1.28,2 -2.947,3.747 -5.001,5.239 v 1.322 c 0,2.69 -0.394,5.391 -1.18,8.099 -0.785,2.707 -1.987,5.293 -3.6,7.762 -1.614,2.465 -3.54,4.66 -5.78,6.578 -2.239,1.92 -4.926,3.448 -8.06,4.581 C 22.446,39.436 19.079,40 15.478,40 9.906,39.999 4.746,38.493 0,35.48 Z"
   id="path2"
   inkscape:connector-curvature="0" />
</svg>