<?xml version="1.0" encoding="UTF-8" standalone="no"?>
<!-- Generator: Adobe Illustrator 16.0.0, SVG Export Plug-In . SVG Version: 6.00 Build 0)  -->

<svg
   xmlns:dc="http://purl.org/dc/elements/1.1/"
   xmlns:cc="http://creativecommons.org/ns#"
   xmlns:rdf="http://www.w3.org/1999/02/22-rdf-syntax-ns#"
   xmlns:svg="http://www.w3.org/2000/svg"
   xmlns="http://www.w3.org/2000/svg"
   xmlns:sodipodi="http://sodipodi.sourceforge.net/DTD/sodipodi-0.dtd"
   xmlns:inkscape="http://www.inkscape.org/namespaces/inkscape"
   version="1.1"
   id="Layer_1"
   x="0px"
   y="0px"
   width="38.561001"
   height="32"
   viewBox="3.5 0 38.561001 32"
   enable-background="new 3.5 0 32 32"
   xml:space="preserve"
   sodipodi:docname="reddit.svg"
   inkscape:version="0.92.3 (2405546, 2018-03-11)"><metadata
   id="metadata9"><rdf:RDF><cc:Work
       rdf:about=""><dc:format>image/svg+xml</dc:format><dc:type
         rdf:resource="http://purl.org/dc/dcmitype/StillImage" /></cc:Work></rdf:RDF></metadata><defs
   id="defs7" /><sodipodi:namedview
   pagecolor="#ffffff"
   bordercolor="#666666"
   borderopacity="1"
   objecttolerance="10"
   gridtolerance="10"
   guidetolerance="10"
   inkscape:pageopacity="0"
   inkscape:pageshadow="2"
   inkscape:window-width="891"
   inkscape:window-height="477"
   id="namedview5"
   showgrid="false"
   inkscape:zoom="7.375"
   inkscape:cx="22.561"
   inkscape:cy="16"
   inkscape:window-x="1009"
   inkscape:window-y="30"
   inkscape:window-maximized="0"
   inkscape:current-layer="Layer_1" />
<path
   d="m 3.5,15.904 c 0,-1.322 0.528,-2.453 1.584,-3.392 1.056,-0.939 2.256,-1.408 3.6,-1.408 1.323,0 2.442,0.384 3.36,1.152 h 0.16 c 2.858,-1.749 6.432,-2.624 10.72,-2.624 l 0.16,-0.128 2.24,-8.544 7.744,1.152 c 0,0.021 0.021,0.032 0.063,0.032 0.021,0 0.021,-0.011 0,-0.032 0.043,-0.021 0.165,-0.187 0.368,-0.496 0.203,-0.31 0.357,-0.507 0.464,-0.592 C 34.69,0.341 35.565,0 36.588,0 c 1.045,0 1.926,0.347 2.641,1.04 0.715,0.693 1.071,1.562 1.071,2.608 0,1.046 -0.356,1.941 -1.071,2.688 -0.715,0.747 -1.596,1.12 -2.641,1.12 -1.216,0 -2.145,-0.411 -2.783,-1.232 C 33.164,5.403 32.844,4.373 32.844,3.136 32.801,3.157 31.762,3.019 29.725,2.72 27.687,2.422 26.519,2.241 26.221,2.176 H 26.124 C 26.082,2.219 25.905,2.789 25.596,3.888 25.287,4.987 24.967,6.149 24.637,7.376 24.305,8.603 24.119,9.28 24.076,9.408 v 0.096 l 0.16,0.128 c 1.535,0 3.109,0.219 4.72,0.656 1.611,0.437 3.003,1.051 4.176,1.84 l 0.097,0.064 c 0.021,-0.021 0.042,-0.032 0.063,-0.032 0.021,0 0.042,-0.011 0.063,-0.032 0.533,-0.384 0.912,-0.65 1.137,-0.8 0.224,-0.149 0.539,-0.288 0.943,-0.416 0.406,-0.128 0.864,-0.192 1.377,-0.192 1.45,0 2.688,0.512 3.711,1.536 1.025,1.024 1.538,2.272 1.538,3.744 0,1.003 -0.283,1.92 -0.849,2.752 -0.566,0.832 -1.307,1.473 -2.224,1.92 0,4.16 -2.773,7.393 -8.32,9.696 -0.875,0.384 -1.473,0.629 -1.792,0.735 -0.683,0.214 -1.653,0.416 -2.912,0.608 C 24.705,31.903 23.713,32 22.988,32 20.428,32 17.964,31.627 15.596,30.88 15.553,30.838 14.785,30.432 13.292,29.664 11.265,28.576 9.639,27.339 8.412,25.952 7.185,24.565 6.572,22.901 6.572,20.96 H 6.412 C 5.708,20.598 5.079,20.064 4.524,19.359 L 4.236,18.976 C 3.916,18.4 3.714,17.914 3.628,17.519 3.542,17.124 3.5,16.587 3.5,15.904 Z m 1.088,0.384 c 0,1.407 0.608,2.603 1.824,3.584 0.106,-1.259 0.619,-2.496 1.536,-3.712 0.917,-1.216 1.995,-2.293 3.232,-3.232 -0.79,-0.554 -1.664,-0.832 -2.624,-0.832 -1.045,0 -1.968,0.432 -2.768,1.296 -0.8,0.864 -1.2,1.829 -1.2,2.896 z m 3.265,4.672 c 0,1.151 0.331,2.261 0.992,3.328 0.661,1.066 1.509,1.979 2.544,2.735 1.035,0.758 2.128,1.393 3.28,1.904 1.152,0.511 2.272,0.875 3.36,1.088 1.6,0.299 3.158,0.448 4.672,0.448 2.624,0 5.109,-0.421 7.456,-1.264 2.346,-0.843 4.32,-2.149 5.92,-3.921 h -0.096 c 0.64,-0.811 1.098,-1.541 1.375,-2.191 0.277,-0.65 0.416,-1.424 0.416,-2.32 0,-1.151 -0.282,-2.25 -0.848,-3.295 C 36.36,16.426 35.617,15.53 34.7,14.784 33.783,14.037 32.801,13.392 31.756,12.848 30.711,12.304 29.645,11.893 28.557,11.616 26.743,11.125 24.813,10.88 22.765,10.88 c -1.579,0 -3.195,0.192 -4.848,0.576 -1.653,0.384 -3.253,0.96 -4.8,1.728 -1.547,0.768 -2.811,1.829 -3.792,3.184 -0.982,1.355 -1.472,2.886 -1.472,4.592 z m 5.952,-2.336 c 0,-0.79 0.24,-1.424 0.72,-1.904 0.479,-0.48 1.114,-0.72 1.904,-0.72 0.789,0 1.451,0.24 1.984,0.72 0.533,0.48 0.8,1.114 0.8,1.904 0,0.769 -0.272,1.408 -0.816,1.92 -0.544,0.513 -1.2,0.769 -1.968,0.769 -0.768,0 -1.397,-0.256 -1.888,-0.769 -0.491,-0.512 -0.736,-1.151 -0.736,-1.92 z m 1.152,5.248 h 1.408 c 0.534,0.96 1.381,1.69 2.544,2.192 1.163,0.501 2.352,0.752 3.568,0.752 1.237,0 2.411,-0.251 3.52,-0.752 1.109,-0.502 2.006,-1.232 2.688,-2.192 h 1.312 c -0.533,1.323 -1.525,2.347 -2.977,3.071 -1.45,0.727 -2.965,1.089 -4.543,1.089 -1.536,0 -3.045,-0.368 -4.528,-1.104 -1.483,-0.737 -2.481,-1.754 -2.992,-3.056 z m 10.751,-5.248 c 0,-0.811 0.245,-1.45 0.735,-1.92 C 26.935,16.235 27.586,16 28.397,16 c 0.725,0 1.344,0.256 1.855,0.768 0.512,0.513 0.768,1.131 0.768,1.856 0,0.725 -0.256,1.354 -0.768,1.888 -0.512,0.534 -1.131,0.801 -1.855,0.801 -0.79,0 -1.436,-0.251 -1.937,-0.752 -0.501,-0.502 -0.752,-1.148 -0.752,-1.937 z M 33.869,3.648 c 0,0.747 0.267,1.387 0.8,1.92 0.533,0.534 1.174,0.8 1.92,0.8 0.768,0 1.397,-0.262 1.889,-0.784 0.49,-0.522 0.735,-1.168 0.735,-1.936 0,-0.725 -0.256,-1.344 -0.769,-1.856 -0.512,-0.512 -1.13,-0.768 -1.855,-0.768 -0.725,0 -1.359,0.261 -1.904,0.784 -0.544,0.523 -0.816,1.136 -0.816,1.84 z m 0.448,8.992 c 1.173,0.768 2.186,1.754 3.039,2.96 0.854,1.205 1.451,2.48 1.793,3.824 1.258,-0.917 1.888,-1.941 1.888,-3.072 0,-1.237 -0.379,-2.304 -1.136,-3.2 -0.758,-0.896 -1.744,-1.344 -2.961,-1.344 -0.959,0 -1.834,0.277 -2.623,0.832 z"
   id="path2"
   inkscape:connector-curvature="0" />
</svg>