<?xml version="1.0" encoding="UTF-8" standalone="no"?>
<!-- Generator: Adobe Illustrator 16.0.0, SVG Export Plug-In . SVG Version: 6.00 Build 0)  -->

<svg
   xmlns:dc="http://purl.org/dc/elements/1.1/"
   xmlns:cc="http://creativecommons.org/ns#"
   xmlns:rdf="http://www.w3.org/1999/02/22-rdf-syntax-ns#"
   xmlns:svg="http://www.w3.org/2000/svg"
   xmlns="http://www.w3.org/2000/svg"
   xmlns:sodipodi="http://sodipodi.sourceforge.net/DTD/sodipodi-0.dtd"
   xmlns:inkscape="http://www.inkscape.org/namespaces/inkscape"
   version="1.1"
   id="Layer_1"
   x="0px"
   y="0px"
   width="25.087999"
   height="32"
   viewBox="-3.5 0 25.087999 32"
   enable-background="new -3.5 0 32 32"
   xml:space="preserve"
   sodipodi:docname="stackoverflow.svg"
   inkscape:version="0.92.3 (2405546, 2018-03-11)"><metadata
   id="metadata30"><rdf:RDF><cc:Work
       rdf:about=""><dc:format>image/svg+xml</dc:format><dc:type
         rdf:resource="http://purl.org/dc/dcmitype/StillImage" /></cc:Work></rdf:RDF></metadata><defs
   id="defs28" /><sodipodi:namedview
   pagecolor="#ffffff"
   bordercolor="#666666"
   borderopacity="1"
   objecttolerance="10"
   gridtolerance="10"
   guidetolerance="10"
   inkscape:pageopacity="0"
   inkscape:pageshadow="2"
   inkscape:window-width="1830"
   inkscape:window-height="980"
   id="namedview26"
   showgrid="false"
   inkscape:zoom="7.375"
   inkscape:cx="-21.149288"
   inkscape:cy="16.512"
   inkscape:window-x="45"
   inkscape:window-y="55"
   inkscape:window-maximized="0"
   inkscape:current-layer="Layer_1" />
<path
   d="M -3.5,32 V 18.656 l 2.432,0.032 -0.096,10.72 H 14.868 V 18.72 h 2.528 V 31.999 H -3.5 Z M 0.436,24.992 H 12.98 v 2.656 H 0.436 Z m 0.032,-2.08 0.256,-2.72 12.576,1.216 -0.256,2.721 z m 0.672,-5.535 0.736,-2.625 12.16,3.423 -0.769,2.625 z m 2.272,-6.433 1.408,-2.336 10.817,6.528 -1.441,2.336 z m 5.344,-6.56 2.208,-1.6 7.36,10.272 -2.24,1.6 z M 16.82,0.448 19.508,0 21.588,12.448 18.9,12.896 Z"
   id="path23"
   inkscape:connector-curvature="0" />
</svg>